<mxfile host="app.diagrams.net" agent="Mozilla/5.0 (Macintosh; Intel Mac OS X 10_15_7) AppleWebKit/537.36 (KHTML, like Gecko) Chrome/138.0.0.0 Safari/537.36" version="28.0.7">
  <diagram name="페이지-1" id="RuTvgAe05luTqqJp8XIn">
    <mxGraphModel dx="1426" dy="1935" grid="0" gridSize="10" guides="1" tooltips="1" connect="1" arrows="1" fold="1" page="1" pageScale="1" pageWidth="1600" pageHeight="1169" background="light-dark(#ffffff, #f5f4f4)" math="0" shadow="0">
      <root>
        <mxCell id="0" />
        <mxCell id="1" parent="0" />
        <mxCell id="2OBhGyxs4nnkqqzqLcTy-14" value="" style="endArrow=classic;startArrow=classic;html=1;rounded=0;strokeColor=light-dark(#000000,#CC0000);startSize=9;strokeWidth=4;exitX=1;exitY=0.388;exitDx=0;exitDy=0;entryX=0;entryY=0.5;entryDx=0;entryDy=0;entryPerimeter=0;exitPerimeter=0;" parent="1" source="2OBhGyxs4nnkqqzqLcTy-12" target="ZPLwYKQgncl39OfeO65Y-1" edge="1">
          <mxGeometry width="50" height="50" relative="1" as="geometry">
            <mxPoint x="178" y="-805.5" as="sourcePoint" />
            <mxPoint x="566" y="-968" as="targetPoint" />
            <Array as="points" />
          </mxGeometry>
        </mxCell>
        <mxCell id="2OBhGyxs4nnkqqzqLcTy-18" value="&lt;font style=&quot;font-size: 16px;&quot;&gt;FastAPI&lt;/font&gt;" style="verticalLabelPosition=middle;verticalAlign=middle;html=1;shape=mxgraph.basic.rect;fillColor2=none;strokeWidth=1;size=20;indent=5;fillColor=light-dark(#FFFFFF,#FFFFFF);fontColor=light-dark(#000000,#000000);strokeColor=light-dark(#000000,#000000);labelPosition=center;align=center;" parent="1" vertex="1">
          <mxGeometry x="108" y="-814" width="119" height="33" as="geometry" />
        </mxCell>
        <mxCell id="2OBhGyxs4nnkqqzqLcTy-21" value="" style="group" parent="1" vertex="1" connectable="0">
          <mxGeometry x="92" y="-875" width="139" height="202" as="geometry" />
        </mxCell>
        <mxCell id="2OBhGyxs4nnkqqzqLcTy-12" value="" style="whiteSpace=wrap;html=1;aspect=fixed;fillColor=light-dark(#FFFFFF,#FFFFFF);strokeColor=light-dark(#000000,#000000);fontColor=light-dark(#000000,#000000);fontSize=16;" parent="2OBhGyxs4nnkqqzqLcTy-21" vertex="1">
          <mxGeometry width="139" height="139" as="geometry" />
        </mxCell>
        <mxCell id="2OBhGyxs4nnkqqzqLcTy-17" value="&lt;h3&gt;Streamlit / Gradio App&lt;/h3&gt;" style="whiteSpace=wrap;html=1;labelBackgroundColor=none;fillStyle=auto;fillColor=none;strokeColor=none;fontColor=light-dark(#000000,#000000);spacing=7;" parent="2OBhGyxs4nnkqqzqLcTy-21" vertex="1">
          <mxGeometry x="9" y="142" width="120" height="60" as="geometry" />
        </mxCell>
        <mxCell id="M7x2iTXA3pfdP00wpJqi-15" value="" style="points=[[0,0],[0.25,0],[0.5,0],[0.75,0],[1,0],[1,0.25],[1,0.5],[1,0.75],[1,1],[0.75,1],[0.5,1],[0.25,1],[0,1],[0,0.75],[0,0.5],[0,0.25]];outlineConnect=0;gradientColor=none;html=1;whiteSpace=wrap;fontSize=12;fontStyle=0;container=0;pointerEvents=0;collapsible=0;recursiveResize=0;shape=mxgraph.aws4.group;grIcon=mxgraph.aws4.group_aws_cloud_alt;strokeColor=#232F3E;fillColor=none;verticalAlign=bottom;align=center;spacingLeft=30;fontColor=light-dark(#232F3E,#33001A);dashed=0;labelPosition=center;verticalLabelPosition=top;fontFamily=Verdana;direction=east;" parent="1" vertex="1">
          <mxGeometry x="40" y="-1120" width="1310" height="650" as="geometry" />
        </mxCell>
        <mxCell id="2OBhGyxs4nnkqqzqLcTy-3" value="" style="group" parent="1" vertex="1" connectable="0">
          <mxGeometry x="308" y="-860" width="120" height="143" as="geometry" />
        </mxCell>
        <mxCell id="ZPLwYKQgncl39OfeO65Y-1" value="" style="sketch=0;points=[[0,0,0],[0.25,0,0],[0.5,0,0],[0.75,0,0],[1,0,0],[0,1,0],[0.25,1,0],[0.5,1,0],[0.75,1,0],[1,1,0],[0,0.25,0],[0,0.5,0],[0,0.75,0],[1,0.25,0],[1,0.5,0],[1,0.75,0]];outlineConnect=0;dashed=0;verticalLabelPosition=bottom;verticalAlign=top;align=center;html=1;fontSize=12;fontStyle=0;aspect=fixed;shape=mxgraph.aws4.resourceIcon;resIcon=mxgraph.aws4.bedrock;labelBackgroundColor=none;fillStyle=auto;fillColor=none;strokeColor=light-dark(#000000,#000000);fontColor=light-dark(#000000,#000000);" parent="2OBhGyxs4nnkqqzqLcTy-3" vertex="1">
          <mxGeometry x="23" width="78" height="78" as="geometry" />
        </mxCell>
        <mxCell id="ZPLwYKQgncl39OfeO65Y-2" value="&lt;h3&gt;FinOps Agent&lt;/h3&gt;" style="whiteSpace=wrap;html=1;labelBackgroundColor=none;fillStyle=auto;fillColor=none;strokeColor=none;fontColor=light-dark(#000000,#000000);spacing=7;" parent="2OBhGyxs4nnkqqzqLcTy-3" vertex="1">
          <mxGeometry y="83" width="120" height="60" as="geometry" />
        </mxCell>
        <mxCell id="RxNtuKK_ktGzNFGGINfy-19" value="AWS Cloud" style="rounded=0;whiteSpace=wrap;html=1;fontColor=light-dark(#000000,#000000);strokeColor=none;fillColor=none;" parent="1" vertex="1">
          <mxGeometry x="71" y="-1114" width="67" height="29" as="geometry" />
        </mxCell>
        <mxCell id="3fnXRMvO_0kpUGVqNr5g-3" value="BedrockModel" style="whiteSpace=wrap;html=1;aspect=fixed;fillColor=light-dark(#FFFFFF,#FFFFFF);strokeColor=light-dark(#000000,#000000);fontColor=light-dark(#000000,#000000);fontSize=16;" vertex="1" parent="1">
          <mxGeometry x="495" y="-1058" width="139" height="139" as="geometry" />
        </mxCell>
        <mxCell id="3fnXRMvO_0kpUGVqNr5g-5" value="System Prompt" style="whiteSpace=wrap;html=1;aspect=fixed;fillColor=light-dark(#FFFFFF,#FFFFFF);strokeColor=light-dark(#000000,#000000);fontColor=light-dark(#000000,#000000);fontSize=16;" vertex="1" parent="1">
          <mxGeometry x="495" y="-919" width="139" height="139" as="geometry" />
        </mxCell>
        <mxCell id="3fnXRMvO_0kpUGVqNr5g-6" value="Tools Registry" style="whiteSpace=wrap;html=1;aspect=fixed;fillColor=light-dark(#FFFFFF,#FFFFFF);strokeColor=light-dark(#000000,#000000);fontColor=light-dark(#000000,#000000);fontSize=16;" vertex="1" parent="1">
          <mxGeometry x="495" y="-780" width="139" height="139" as="geometry" />
        </mxCell>
        <mxCell id="3fnXRMvO_0kpUGVqNr5g-7" value="&lt;h3&gt;Agent Layer&lt;/h3&gt;" style="whiteSpace=wrap;html=1;labelBackgroundColor=none;fillStyle=auto;fillColor=none;strokeColor=none;fontColor=light-dark(#000000,#000000);spacing=7;" vertex="1" parent="1">
          <mxGeometry x="504.5" y="-638" width="120" height="60" as="geometry" />
        </mxCell>
        <mxCell id="3fnXRMvO_0kpUGVqNr5g-12" value="&lt;span style=&quot;font-size: 16px; background-color: light-dark(rgb(255, 255, 255), rgb(255, 255, 255));&quot;&gt;&lt;font style=&quot;color: light-dark(rgb(0, 0, 0), rgb(51, 0, 26));&quot;&gt;search account tools&lt;/font&gt;&lt;/span&gt;" style="rounded=1;whiteSpace=wrap;html=1;strokeColor=light-dark(#000000,#000000);fillColor=light-dark(#FFFFFF,#FFFFFF);" vertex="1" parent="1">
          <mxGeometry x="675" y="-1058" width="209" height="60" as="geometry" />
        </mxCell>
        <mxCell id="3fnXRMvO_0kpUGVqNr5g-13" value="&lt;font style=&quot;color: light-dark(rgb(255, 215, 237), rgb(0, 0, 0));&quot;&gt;&lt;span style=&quot;font-size: 16px;&quot;&gt;cur tools&lt;/span&gt;&lt;/font&gt;" style="rounded=1;whiteSpace=wrap;html=1;strokeColor=light-dark(#000000,#000000);fillColor=light-dark(#FFFFFF,#FFFFFF);" vertex="1" parent="1">
          <mxGeometry x="677" y="-998" width="209" height="60" as="geometry" />
        </mxCell>
        <mxCell id="3fnXRMvO_0kpUGVqNr5g-14" value="" style="edgeStyle=none;orthogonalLoop=1;jettySize=auto;html=1;rounded=0;" edge="1" parent="1">
          <mxGeometry width="80" relative="1" as="geometry">
            <mxPoint x="838" y="-966" as="sourcePoint" />
            <mxPoint x="918" y="-966" as="targetPoint" />
            <Array as="points" />
          </mxGeometry>
        </mxCell>
        <mxCell id="3fnXRMvO_0kpUGVqNr5g-15" value="&lt;font style=&quot;color: light-dark(rgb(255, 215, 237), rgb(0, 0, 0));&quot;&gt;&lt;span style=&quot;font-size: 16px;&quot;&gt;cost explorer tools&lt;/span&gt;&lt;/font&gt;" style="rounded=1;whiteSpace=wrap;html=1;strokeColor=light-dark(#000000,#000000);fillColor=light-dark(#FFFFFF,#FFFFFF);" vertex="1" parent="1">
          <mxGeometry x="677" y="-938" width="209" height="60" as="geometry" />
        </mxCell>
        <mxCell id="3fnXRMvO_0kpUGVqNr5g-16" value="&lt;font style=&quot;color: light-dark(rgb(0, 0, 0), rgb(0, 0, 0));&quot;&gt;&lt;span style=&quot;font-size: 16px; background-color: light-dark(rgb(255, 255, 255), rgb(255, 255, 255));&quot;&gt;chart tools&lt;/span&gt;&lt;/font&gt;" style="rounded=1;whiteSpace=wrap;html=1;strokeColor=light-dark(#000000,#000000);fillColor=light-dark(#FFFFFF,#FFFFFF);" vertex="1" parent="1">
          <mxGeometry x="679" y="-878" width="209" height="60" as="geometry" />
        </mxCell>
        <mxCell id="3fnXRMvO_0kpUGVqNr5g-17" value="&lt;font style=&quot;color: light-dark(rgb(0, 0, 0), rgb(0, 0, 0));&quot;&gt;&lt;span style=&quot;font-size: 16px; background-color: light-dark(rgb(255, 255, 255), rgb(255, 255, 255));&quot;&gt;...&amp;nbsp;&lt;/span&gt;&lt;/font&gt;" style="rounded=1;whiteSpace=wrap;html=1;strokeColor=light-dark(#000000,#000000);fillColor=light-dark(#FFFFFF,#FFFFFF);" vertex="1" parent="1">
          <mxGeometry x="679" y="-698" width="209" height="60" as="geometry" />
        </mxCell>
        <mxCell id="3fnXRMvO_0kpUGVqNr5g-18" value="&lt;h3&gt;Tools Layer&lt;/h3&gt;" style="whiteSpace=wrap;html=1;labelBackgroundColor=none;fillStyle=auto;fillColor=none;strokeColor=none;fontColor=light-dark(#000000,#000000);spacing=7;" vertex="1" parent="1">
          <mxGeometry x="728" y="-638" width="120" height="60" as="geometry" />
        </mxCell>
      </root>
    </mxGraphModel>
  </diagram>
</mxfile>
